# xmcd
#
# Track frame offsets:
#	300
#	13267
#	35080
#	51731
#	70599
#	84436
#	101968
#	119882
#	137240
#	154813
#	169984
#	187303
#	207229
#	223895
#	240471
#
# Disc length: 3416 seconds
#
# Revision: 1
# Processed by: cddbd v1.5.2PL0 Copyright (c) Steve Scherf et al.
# Submitted via: audiograbber 1.83.01
#
DISCID=f50d540f
DTITLE=Various Artist - sc8989
DYEAR=1900
DGENRE=country
TTITLE0=johnny cash - god's gonna cut you down
TTITLE1=sara evans - you'll always be my baby
TTITLE2=eric church - two pink lines
TTITLE3=kenny chesney - you save me
TTITLE4=vince gill - the reason why
TTITLE5=trent willmon - on again tonight
TTITLE6=pat green - feels just like it should
TTITLE7=lee ann womack - finding my way back
TTITLE8=phil vassar - woman in my life
TTITLE9=toby keith - crash here tonight
TTITLE10=tim mcgraw - my little girl
TTITLE11=rascal flattS - my wish
TTITLE12=gretchen wilson - one bud wiser
TTITLE13=alan jackson - like red on a rose
TTITLE14=bomshel - country music love song
EXTD=
EXTT0=
EXTT1=
EXTT2=
EXTT3=
EXTT4=
EXTT5=
EXTT6=
EXTT7=
EXTT8=
EXTT9=
EXTT10=
EXTT11=
EXTT12=
EXTT13=
EXTT14=
PLAYORDER=
